HIERARCHY
ROOT Hip
{
   OFFSET 0.00000 0.00000 0.00000
   CHANNELS 6 Xposition Yposition Zposition Zrotation Yrotation Xrotation
   JOINT Head
   {
      OFFSET 0.000000 23.756001 0.000000
      CHANNELS 3 Zrotation Yrotation Xrotation
      End Site
      {
         OFFSET 0.000000 14.154000 0.000000
      }
      JOINT LeftShoulder
      {
         OFFSET 7.854600 0.000000 0.000000
         CHANNELS 3 Zrotation Yrotation Xrotation
         JOINT LeftHand
         {
            OFFSET 0.000000 -11.478000 0.000000
            CHANNELS 3 Zrotation Yrotation Xrotation
            End Site
            {
               OFFSET 0.000000 -12.571000 0.000000
            }
         }
      }
      JOINT RightShoulder
      {
         OFFSET -8.371200 0.000000 0.000000
         CHANNELS 3 Zrotation Yrotation Xrotation
         JOINT RightHand
         {
            OFFSET 0.000000 -13.753000 0.000000
            CHANNELS 3 Zrotation Yrotation Xrotation
            End Site
            {
               OFFSET 0.000000 -11.776000 0.000000
            }
         }
      }
   }
   JOINT LeftHip
   {
      OFFSET 8.311300 0.000000 0.000000
      CHANNELS 3 Zrotation Yrotation Xrotation
      JOINT LeftKnee
      {
         OFFSET 0.000000 -23.427999 0.000000
         CHANNELS 3 Zrotation Yrotation Xrotation
         JOINT LeftFoot
         {
            OFFSET 0.000000 -17.863000 0.000000
            CHANNELS 3 Zrotation Yrotation Xrotation
            End Site
            {
               OFFSET 0.000000 0.000000 11.641000
            }
         }
      }
   }
   JOINT RightHip
   {
      OFFSET -8.311300 0.000000 0.000000
      CHANNELS 3 Zrotation Yrotation Xrotation
      JOINT RightKnee
      {
         OFFSET 0.000000 -21.203000 0.000000
         CHANNELS 3 Zrotation Yrotation Xrotation
         JOINT RightFoot
         {
            OFFSET 0.000000 -18.184000 0.000000
            CHANNELS 3 Zrotation Yrotation Xrotation
            End Site
            {
               OFFSET 0.000000 0.000000 11.692999
            }
         }
      }
   }
}
MOTION
Frames: 21
Frame Time: 0.016670
-5.260925 63.167042 -8.646679 -42.485279 140.337820 79.205203 -14.809018 19.961699 -18.370332 -22.588890 -89.298180 81.287126 78.038852 38.272436 146.619723 -135.704685 -94.473326 123.456899 -203.466322 9.300612 -66.057608 -89.614076 -27.246231 78.602882 121.622679 -37.500669 10.470306 2.933738 -54.056033 -25.306841 -54.200481 -69.421626 67.289439 87.794384 -25.142848 19.035469 -10.252030 -70.035414 33.295632
-5.181360 64.420890 -8.774179 -43.687160 140.056512 81.980479 -14.254998 21.824022 -16.779077 -23.082981 -87.893183 80.887786 81.467314 39.185953 148.739021 -136.626063 -94.420207 122.151308 -202.568480 11.084746 -67.770599 -87.664426 -24.505860 76.686488 122.364082 -38.043047 11.300552 2.801791 -53.131266 -25.433587 -56.230704 -64.438757 70.671482 87.322985 -25.916991 12.885825 -11.165977 -71.872223 32.888682
-5.100886 65.700187 -8.863454 -45.187148 139.801951 84.558309 -13.475113 23.536538 -14.838857 -23.454296 -86.837236 80.547335 84.871972 40.648809 151.574643 -137.689824 -94.376146 120.695084 -201.952848 12.948110 -69.022682 -85.547969 -21.535312 75.824922 123.090814 -38.848135 11.571368 2.542989 -52.302713 -25.765263 -57.429118 -59.967695 73.081098 88.348353 -25.973316 9.370075 -12.955667 -72.497793 31.204795
-5.001184 66.984166 -8.938205 -46.908185 139.554890 86.921254 -12.519446 25.346694 -12.349240 -23.831548 -86.673755 80.128036 87.702060 41.946405 155.228357 -138.815057 -94.718891 119.099306 -201.468942 15.293538 -70.234145 -83.258141 -18.331929 75.777664 123.366139 -39.474802 11.688015 2.294773 -51.366759 -26.072898 -58.047012 -55.593218 74.954858 90.454709 -26.494715 7.156742 -15.318770 -73.203980 28.884402
-4.872377 68.290490 -9.005374 -48.732867 139.232819 89.202469 -11.473899 27.102317 -9.195031 -24.317446 -87.041766 79.592229 90.247365 42.915130 159.170810 -140.033331 -95.834015 117.212535 -201.256442 17.705483 -71.804228 -80.950890 -15.085410 76.228907 123.154007 -39.639583 11.869460 2.003259 -50.133548 -26.356004 -58.391670 -50.704562 76.393405 93.510686 -27.665254 5.618803 -16.085710 -74.289638 28.320442
-4.671144 69.591011 -9.089647 -50.511476 138.812421 91.501305 -10.370339 28.601605 -5.630835 -24.942084 -87.314222 78.872757 93.046185 43.943050 163.451877 -141.296219 -97.665811 114.913288 -201.354824 20.615509 -73.567025 -78.583205 -11.996006 76.964375 121.980294 -38.562681 12.483115 1.501652 -47.951616 -26.549123 -58.295016 -45.344786 77.390012 96.902790 -28.760390 4.975359 -15.294482 -75.287461 29.378454
-4.470835 70.824455 -9.230209 -53.397289 138.162282 92.912190 -8.918808 29.090681 -1.454991 -25.942165 -87.404435 77.836938 96.081719 44.653116 166.981378 -142.672352 -99.651517 112.173194 -202.173149 23.451036 -74.824210 -76.577492 -9.297321 78.662455 120.015248 -37.048339 13.116123 0.890102 -45.496051 -26.739238 -58.183376 -39.823257 79.047214 100.295461 -30.800837 3.404259 -14.782358 -77.087318 30.253025
-4.239063 72.053832 -9.410273 -56.505335 137.245043 94.258059 -10.133693 29.166933 0.850357 -25.406758 -86.883585 78.410763 98.509558 44.936702 170.161445 -142.508782 -101.075660 110.865288 -203.460912 25.997298 -76.399539 -75.037203 -7.004925 80.529938 117.445431 -35.730202 13.618951 0.191153 -43.385058 -27.208595 -57.745807 -34.737922 80.682395 102.856570 -31.811678 2.240311 -15.763296 -78.082012 29.422891
-3.992985 73.224739 -9.602382 -60.228034 136.212591 95.101881 -9.346962 29.507322 3.341282 -26.271675 -86.671344 77.740414 100.160045 44.786824 172.012591 -143.773214 -100.423336 108.272179 -205.187953 28.138298 -78.366790 -73.873461 -4.909461 82.940237 114.479073 -34.453759 14.314500 -0.344517 -41.474319 -27.527759 -56.947109 -30.136816 82.908039 103.968846 -31.708665 1.154544 -18.085740 -78.160074 27.070487
-3.678541 74.387797 -9.883425 -63.843363 134.926125 96.201241 -9.046866 30.157061 4.751809 -27.000754 -86.235503 77.234031 101.813423 44.678576 173.554970 -145.096809 -98.231214 105.932860 -207.394009 30.045640 -80.545450 -73.132611 -3.145916 84.860661 111.364718 -33.384363 15.038130 -0.839428 -39.841525 -27.915521 -56.213010 -25.932046 84.989089 103.588343 -31.576046 0.180420 -20.430877 -78.229551 24.680498
-3.316926 75.522202 -10.240587 -67.061905 133.480474 97.613519 -8.433401 31.686487 5.418915 -27.991447 -86.039408 76.713147 102.283647 44.261006 173.939182 -146.845488 -94.137396 103.611839 -209.750096 32.229904 -83.558957 -72.397683 -1.234640 85.938615 108.134687 -32.915942 15.653376 -0.877291 -38.924408 -27.967060 -55.685982 -21.667168 86.841744 102.100652 -31.037571 -0.463729 -21.538267 -77.836187 23.505437
-2.866929 76.554784 -10.737742 -70.025517 131.841775 99.341099 -8.187750 33.357158 5.737220 -28.966392 -86.197957 76.162989 102.742335 43.930230 174.804499 -148.501959 -89.593893 102.039235 -212.225521 34.516921 -87.440970 -71.687384 0.495497 86.378855 104.694116 -32.621933 15.966081 -0.763798 -38.318396 -27.921943 -55.436783 -17.866742 88.243975 99.556195 -30.353227 -0.994989 -22.065587 -77.227474 22.899804
-2.323126 77.479986 -11.321794 -72.912911 130.065749 100.999920 -7.593219 34.652674 6.571375 -30.049571 -86.724169 75.408423 102.942760 43.713484 176.229973 -150.529542 -85.595780 100.884216 -215.029272 36.384674 -91.653858 -71.018470 2.312078 86.720378 101.134877 -32.372993 15.926808 -0.746852 -37.888705 -28.079891 -55.208528 -14.526655 89.262404 96.154727 -29.642656 -1.443137 -22.540753 -76.522079 22.319554
-1.698319 78.285335 -11.966537 -75.927689 128.132546 102.723129 -7.577414 36.088076 6.429006 -30.705792 -87.355053 75.187644 102.154297 43.406590 176.686530 -152.259738 -80.183696 100.838679 -218.111095 37.278981 -95.870495 -70.468421 3.849070 87.090963 97.400526 -32.553720 15.443681 -0.775066 -38.018086 -28.640648 -54.800015 -12.009259 89.782126 92.332505 -29.047019 -1.820322 -23.162734 -75.924396 21.628653
-0.998456 78.955082 -12.701878 -78.440194 126.064842 104.811766 -7.914767 37.755623 5.753794 -31.184062 -87.845645 75.207684 100.867209 42.930478 175.944157 -154.099709 -74.573003 101.638583 -221.020933 37.182402 -100.454092 -69.681419 5.333995 87.105860 93.232540 -32.683627 14.617880 -0.644425 -38.385240 -29.105977 -54.246465 -9.910534 89.573826 87.947667 -28.522506 -2.328123 -24.164140 -75.336112 20.513363
-0.224141 79.487127 -13.501866 -80.492789 123.936624 107.341764 -6.385123 39.430583 3.728743 -32.773464 -86.645499 74.600474 98.549296 41.649278 172.033108 -157.512864 -67.483362 100.967668 -223.458777 34.261318 -104.404680 -68.695229 6.738541 86.966210 88.735639 -32.449542 13.507443 -0.395215 -38.575331 -29.205687 -53.876980 -7.931041 88.858569 83.915294 -29.533550 -3.185323 -24.637220 -76.064135 20.081396
0.638122 79.875973 -14.358616 -82.464221 121.635765 110.107246 -7.305641 40.663029 1.935649 -33.032038 -86.848137 75.127737 96.749548 40.145591 169.732933 -159.842409 -62.197308 102.847274 -225.524063 32.203772 -108.569969 -67.399173 7.875522 86.857924 84.210113 -32.132738 12.398257 0.021279 -38.745034 -28.906436 -53.173405 -6.096364 87.789958 80.395493 -30.743856 -4.407756 -24.379646 -76.814445 20.393941
1.548349 80.105685 -15.284275 -84.355527 119.095618 112.980550 -8.777999 40.757924 0.151027 -33.013378 -86.682074 75.855937 95.603695 38.522663 167.743722 -161.897599 -58.587594 105.472246 -227.625644 30.037922 -111.930818 -65.884797 8.769364 86.744277 79.729590 -32.190658 11.362021 1.062984 -39.419699 -28.022309 -51.587237 -4.278508 86.451829 77.551914 -31.200953 -5.916351 -24.251372 -76.816235 20.512098
2.580104 80.148238 -16.304885 -85.692428 116.478822 116.053862 -9.729752 39.191427 -0.092388 -33.379729 -86.192315 76.107889 95.094839 37.115453 167.105373 -164.114214 -59.002480 108.655619 -230.362582 28.484723 -114.137775 -64.190050 9.857861 86.489080 75.513233 -32.647071 10.474434 2.490995 -40.581975 -26.867985 -49.394832 -1.971216 85.134080 75.697081 -31.373258 -7.951926 -24.284454 -76.555759 20.428862
3.691804 80.028523 -17.378410 -86.308121 113.783206 120.129053 -11.162198 38.032826 -1.195975 -33.064806 -86.526114 77.006695 94.440104 35.621117 166.628516 -165.537995 -58.174176 111.621895 -232.914587 25.964517 -115.431044 -62.964618 10.769803 86.147680 71.498202 -32.560516 9.130437 4.413064 -41.134801 -24.299631 -46.704994 0.536370 83.637476 74.885723 -32.172049 -10.681389 -24.636357 -77.014317 20.089938
4.890719 79.687275 -18.525666 -85.853743 111.096510 125.393285 -12.796845 37.004165 -2.449903 -32.415955 -87.448886 78.140137 93.585182 33.923210 165.564414 -166.631535 -57.171385 114.792804 -235.479869 23.577786 -116.263111 -62.527889 11.420758 85.766385 67.702686 -33.852350 7.681468 6.054068 -42.924611 -22.642890 -42.960377 3.780333 81.841888 75.535342 -33.579095 -14.281588 -24.857980 -78.426431 19.975382
